<?xml version="1.0" standalone="no"?>
<!DOCTYPE svg PUBLIC "-//W3C//DTD SVG 20010904//EN"
 "http://www.w3.org/TR/2001/REC-SVG-20010904/DTD/svg10.dtd">
<svg version="1.0" xmlns="http://www.w3.org/2000/svg"
 width="336.000000pt" height="410.000000pt" viewBox="0 0 336.000000 410.000000"
 preserveAspectRatio="xMidYMid meet">
<metadata>
Created by potrace 1.13, written by Peter Selinger 2001-2015
</metadata>
<g transform="translate(0.000000,410.000000) scale(0.100000,-0.100000)"
fill="#000000" stroke="none">
<path d="M1106 3995 c-23 -35 -79 -61 -163 -75 -68 -11 -123 -38 -123 -61 0
-5 40 -9 89 -9 55 0 92 -4 97 -11 5 -8 -22 -10 -97 -5 -102 6 -112 4 -56 -8
33 -8 36 -26 3 -26 -20 0 -36 -16 -36 -36 0 -2 14 -4 30 -4 47 0 77 -21 174
-118 l88 -89 -61 -5 c-40 -3 -68 -10 -78 -21 -16 -16 -13 -17 46 -17 57 0 201
-33 201 -46 0 -3 -19 -14 -42 -24 -47 -22 -96 -25 -146 -10 -28 7 -32 7 -22
-4 6 -8 31 -20 55 -27 63 -19 58 -36 -15 -50 -34 -6 -34 -7 -5 -8 17 0 48 4
70 9 50 11 54 6 25 -25 -30 -32 -13 -32 35 1 l37 25 -6 -58 c-5 -41 -4 -54 3
-43 6 8 11 25 11 38 0 31 17 62 34 62 7 0 25 -9 39 -20 23 -18 24 -23 13 -44
-7 -14 -13 -58 -14 -98 0 -49 2 -66 8 -53 5 11 9 32 9 46 1 41 37 79 74 79 35
0 99 -28 104 -47 3 -6 -41 -33 -99 -61 -58 -28 -126 -70 -153 -95 -28 -24 -61
-50 -74 -57 -43 -22 -154 -50 -246 -61 -49 -6 -114 -17 -143 -25 -28 -9 -100
-19 -160 -24 -108 -9 -211 -40 -347 -104 -188 -90 -225 -106 -239 -106 -13 0
-16 -11 -16 -55 0 -51 2 -55 23 -55 12 0 50 10 82 21 81 29 113 36 230 53 55
8 116 18 135 21 50 9 213 56 225 65 10 8 184 26 328 34 76 4 77 4 77 -19 0
-13 5 -27 11 -31 8 -5 10 -47 5 -148 -6 -122 -11 -148 -33 -194 -26 -52 -47
-72 -78 -72 -9 0 -35 -9 -58 -19 -23 -11 -59 -22 -80 -25 -21 -3 -50 -12 -65
-20 -28 -15 -142 -128 -158 -158 -5 -9 -35 -44 -67 -77 -31 -33 -57 -64 -57
-68 0 -8 -67 -57 -209 -153 -36 -25 -113 -79 -170 -120 -56 -41 -112 -79 -122
-85 -16 -8 -19 -21 -19 -95 0 -47 3 -136 7 -197 l6 -113 32 0 c18 0 66 14 106
31 41 17 92 37 114 44 46 15 173 84 284 155 42 26 103 65 136 86 33 20 76 47
95 60 19 12 76 44 126 70 l92 49 53 -19 c30 -10 63 -24 74 -30 11 -6 29 -11
40 -12 11 -1 112 -34 225 -74 251 -88 267 -93 360 -120 136 -39 253 -83 279
-106 15 -12 37 -48 49 -80 67 -169 113 -240 236 -359 59 -57 211 -237 248
-293 15 -23 16 -28 3 -42 -8 -9 -15 -20 -15 -24 0 -4 -9 -19 -20 -33 -11 -14
-22 -41 -26 -62 -4 -20 -13 -48 -20 -62 -11 -21 -11 -29 -1 -37 25 -19 144
-60 212 -72 82 -15 158 -37 200 -58 41 -21 248 -61 315 -62 59 0 120 27 120
54 0 28 -50 73 -117 106 -37 18 -79 44 -92 57 -13 12 -29 23 -36 23 -7 0 -36
25 -64 55 -45 47 -51 58 -40 71 10 13 6 22 -29 56 -35 34 -47 39 -70 34 -15
-4 -33 -8 -41 -9 -14 -2 -86 92 -145 190 -131 214 -186 307 -186 311 0 3 -31
58 -70 123 -61 103 -70 123 -70 167 0 34 -8 63 -25 94 -34 62 -51 76 -260 216
-100 68 -292 160 -410 197 -49 16 -102 37 -117 47 -14 10 -31 18 -37 18 -13 0
-15 72 -3 86 18 20 62 158 73 227 7 47 24 100 50 152 22 44 42 98 46 120 6 41
34 74 84 100 33 18 59 57 59 90 0 14 3 25 6 25 10 0 133 -100 200 -162 72 -66
103 -84 164 -93 40 -6 51 -3 95 27 71 46 241 213 316 311 35 45 87 104 115
132 28 27 62 71 77 96 l27 47 -23 28 c-12 16 -26 31 -30 33 -5 2 -17 12 -25
22 -9 11 -24 19 -34 19 -10 0 -18 5 -18 10 0 6 -13 10 -29 10 -33 0 -77 -31
-86 -61 -4 -11 -18 -24 -31 -29 -28 -11 -30 -31 -8 -65 10 -15 14 -34 10 -49
-8 -34 -140 -153 -225 -203 -101 -61 -114 -58 -203 30 -40 40 -94 86 -120 102
-35 22 -48 37 -51 60 -3 16 -9 42 -12 58 -6 23 -4 27 15 27 13 0 24 8 27 18 2
10 18 23 34 29 16 6 29 18 29 27 0 10 8 16 21 16 18 0 20 4 14 31 -6 24 -3 34
13 44 44 32 31 148 -25 215 -51 60 -218 136 -363 165 -84 17 -147 74 -245 220
-29 44 -76 103 -105 130 l-52 50 36 -48 c20 -27 36 -56 36 -65 0 -11 -7 -6
-18 13 -10 17 -35 45 -56 63 -35 30 -41 32 -115 32 -73 0 -80 -2 -95 -25z"/>
</g>
</svg>
