<?xml version="1.0" standalone="no"?>
<!DOCTYPE svg PUBLIC "-//W3C//DTD SVG 20010904//EN"
 "http://www.w3.org/TR/2001/REC-SVG-20010904/DTD/svg10.dtd">
<svg version="1.0" xmlns="http://www.w3.org/2000/svg"
 width="1200.000000pt" height="500.000000pt" viewBox="0 0 1200.000000 500.000000"
 preserveAspectRatio="xMidYMid meet">
<metadata>
Created by potrace 1.13, written by Peter Selinger 2001-2015
</metadata>
<g transform="translate(0.000000,500.000000) scale(0.100000,-0.100000)"
fill="#000000" stroke="none">
<path d="M2635 4993 c-1083 -71 -2021 -639 -2426 -1468 -110 -226 -173 -447
-199 -699 -17 -157 -8 -647 14 -776 120 -726 615 -1348 1371 -1720 324 -159
637 -252 1041 -307 122 -17 333 -18 3699 -18 3771 0 3683 -1 4099 46 1022 114
1570 462 1715 1089 44 189 44 167 48 2053 l4 1807 -4658 -2 c-2562 -1 -4680
-3 -4708 -5z m9293 -880 c1 -453 1 -823 -1 -823 -2 0 -78 34 -170 75 -276 123
-341 144 -491 161 -72 8 -167 21 -211 29 -44 9 -144 26 -222 40 -188 33 -240
53 -321 127 -47 43 -101 77 -191 121 -69 34 -127 68 -129 75 -5 17 82 54 130
56 52 1 75 -25 89 -99 16 -88 25 -86 28 6 2 67 -2 87 -19 116 -23 40 -18 53
34 80 28 15 31 14 48 -7 10 -12 18 -36 19 -54 0 -17 5 -40 10 -51 6 -13 7 6 3
55 l-6 75 23 -21 c24 -22 81 -54 95 -54 5 0 -7 16 -26 35 -18 19 -31 37 -29
39 3 3 29 -1 59 -9 30 -8 71 -15 90 -14 34 0 34 1 -12 13 -26 7 -54 19 -63 26
-14 11 -6 17 60 43 79 30 96 46 28 28 -73 -21 -153 -10 -211 27 l-24 15 24 13
c46 24 147 44 224 44 l78 0 -21 21 c-17 17 -37 23 -96 27 l-74 4 114 112 c124
120 160 145 211 146 17 0 32 5 32 10 0 6 -5 10 -11 10 -5 0 -8 4 -5 9 7 10
-17 21 -47 21 -36 0 -3 23 45 31 24 4 -15 5 -86 2 -105 -4 -128 -3 -124 8 4
11 31 14 111 14 58 1 109 4 113 8 9 9 -14 36 -47 53 -15 8 -63 19 -106 25 -91
14 -163 46 -193 89 -21 30 -22 30 -114 30 -86 0 -96 -2 -132 -29 -46 -33 -66
-55 -87 -96 -9 -16 -16 -26 -17 -22 -1 19 30 77 60 110 18 20 28 37 23 37 -20
0 -122 -119 -193 -224 -129 -194 -159 -217 -339 -267 -208 -58 -329 -116 -391
-187 -46 -52 -64 -105 -62 -182 1 -45 6 -59 27 -77 21 -18 25 -30 23 -60 -3
-34 -1 -38 20 -36 15 2 22 -3 22 -15 0 -20 33 -52 54 -52 7 0 16 -9 19 -20 3
-13 14 -20 29 -20 35 0 39 -8 23 -47 -8 -20 -15 -48 -15 -63 0 -21 -11 -34
-57 -66 -32 -21 -100 -81 -151 -131 -67 -68 -100 -93 -118 -93 -59 0 -245 122
-341 224 -67 70 -71 76 -64 108 4 18 14 43 21 54 16 26 7 54 -17 54 -10 0 -26
16 -38 37 -34 64 -126 108 -141 68 -4 -8 -17 -15 -31 -15 -16 0 -27 -7 -30
-19 -3 -11 -16 -22 -29 -25 -13 -4 -24 -12 -24 -18 0 -6 -10 -22 -22 -35 l-22
-24 34 -62 c18 -34 61 -89 94 -122 34 -33 84 -89 111 -125 112 -146 368 -390
453 -434 67 -35 163 3 283 110 86 78 225 194 233 194 3 0 6 -9 6 -21 0 -41 33
-92 79 -120 81 -50 92 -64 107 -135 7 -37 29 -94 47 -128 32 -58 45 -102 82
-277 9 -42 23 -85 30 -95 8 -11 15 -26 15 -34 0 -8 7 -28 15 -44 8 -15 15 -49
14 -75 l0 -46 -57 -27 c-31 -15 -106 -44 -167 -63 -195 -63 -355 -149 -630
-339 -137 -94 -184 -161 -193 -275 -4 -62 -11 -78 -120 -266 -215 -375 -386
-648 -431 -689 -18 -17 -21 -17 -43 -2 -36 26 -60 19 -113 -34 -38 -39 -47
-52 -37 -62 7 -7 12 -16 12 -21 0 -14 -122 -137 -136 -137 -7 0 -26 -13 -42
-29 -16 -17 -67 -47 -113 -69 -133 -61 -175 -130 -106 -173 29 -18 43 -20 142
-15 138 7 284 37 366 76 35 16 88 34 118 40 152 30 212 45 283 72 94 36 105
46 84 87 -9 16 -16 40 -16 53 0 24 -72 162 -90 173 -7 4 -6 14 1 28 24 45 228
285 325 382 135 135 192 218 250 368 26 67 55 130 63 141 26 30 97 61 256 111
83 26 302 98 488 162 186 63 341 112 344 109 4 -3 13 0 22 8 28 24 150 58 184
52 42 -8 177 -84 451 -255 288 -181 372 -223 599 -308 l67 -26 0 -47 c0 -26
-7 -87 -15 -136 -42 -247 -135 -439 -290 -603 -278 -292 -741 -465 -1435 -535
-403 -41 -356 -41 -4030 -41 -3704 0 -3577 -1 -3840 42 -537 87 -1039 313
-1430 641 -395 331 -656 755 -757 1227 -28 129 -28 132 -28 515 0 335 2 398
19 485 70 372 228 696 489 1001 468 547 1233 904 2042 954 66 4 2183 7 4705 6
l4585 -1 3 -822z m-988 -759 c140 -12 201 -21 253 -40 112 -40 259 -73 389
-89 69 -8 172 -29 233 -48 l110 -32 3 -593 c1 -325 -1 -592 -4 -592 -6 0 -154
102 -416 288 -82 58 -148 111 -148 119 0 7 -11 19 -25 25 -14 6 -25 16 -25 22
0 6 -20 31 -45 55 -25 25 -48 55 -51 67 -3 12 -14 24 -25 27 -11 3 -19 9 -17
14 4 14 -105 124 -143 143 -19 10 -64 26 -100 35 -35 9 -79 23 -97 31 -18 9
-48 18 -67 21 -41 7 -54 20 -94 95 -28 55 -30 64 -37 233 -5 129 -4 175 5 175
6 0 11 13 11 28 0 39 6 43 59 37 25 -3 129 -12 231 -21z"/>
</g>
</svg>
